<?xml version="1.0" encoding="UTF-8"?>
<svg enable-background="new 0 0 46.5 46.5" version="1.1" viewBox="0 0 46.5 46.5" fill="#1fba0a" xml:space="preserve" xmlns="http://www.w3.org/2000/svg">
	<path class="st0" d="m14.5 41.7c-1.9-0.6-3.5-2-5.1-3.6-2-2.1-4.5-3.7-6.8-5.6-1.7-1.3-3-2.6-2.5-5.3 0.5-2.8 0-5.8-0.2-8.7-0.2-2.5 1-4.1 3.1-4.9 3.7-1.3 7.4-2.4 11.2-3.6 5.4-1.6 10.8-3.2 16.2-4.9 1.6-0.5 3-0.5 4.5 0.5 2.8 1.9 5.8 3.7 8.8 5.3 1.9 1 2.5 2.4 2.3 4.4-0.5 4.4-0.6 8.8 0.3 13.2 0.4 1.9-0.9 2.5-2.3 3-3.3 1.2-6.7 2.3-10 3.5-6.3 2.3-12.6 4.4-19.5 6.7zm1.3-29.3c2.3 1.8 4 3.3 5.7 4.6 7.1 5.4 6.1 4.4 6.4 12.7 0 1.4 0.3 2.7 0.5 4.4 1.8-0.6 3.2-1.1 4.7-1.7 0.2-3.9 0.5-7.7 0.6-11.5 0-0.9-0.4-2.1-1.1-2.7-2.5-2.4-5.2-4.7-7.9-7-0.5-0.4-1.3-0.8-1.9-0.6-2.2 0.5-4.3 1.1-7 1.8zm-11.1 3.5c2.9 3 5.6 5.7 8.3 8.4 0.4 0.3 1.2 0.5 1.7 0.4 2.8-1 5.5-2.1 8.7-3.3-3.2-2.5-6-4.8-8.8-7-0.5-0.4-1.3-0.8-1.9-0.7-2.7 0.6-5.3 1.4-8 2.2zm21.7-6.1c2.7 2.4 5 4.4 7.4 6.4 0.6 0.5 1.7 0.9 2.5 0.7 2.2-0.5 4.3-1.4 7-2.3-2.9-2.5-5.6-4.2-8.5-5.7-1.7-0.9-3.2-1-4.9-0.4-0.9 0.3-1.9 0.6-3.5 1.3zm-11.9 22c0.3 0.2 0.5 0.3 0.6 0.3 3.2-1 6.5-2.1 9.7-3.2 0.3-0.1 0.4-0.9 0.9-2.1l-10.5 3.5c-0.3 0.1-0.4 1-0.7 1.5zm0.5 6.9c3.4-1.1 6.7-2.2 9.9-3.4 0.5-0.2 0.7-1.1 1.2-2.1-10.9 3.6-10.9 3.6-11.1 5.5zm0.6-10.7c3.2-1 6.5-1.9 9.7-2.9-2.5-0.6-6.2 0.5-9.7 2.9zm19.9 3.6c2.8-0.7 5.3-1.5 8-3.3-5.2 0.6-7.2 1.4-8 3.3zm7.4-13c-0.1-0.2-0.2-0.5-0.3-0.7-1.2 0.4-2.5 0.6-3.5 1.2s-2.9 0-3.2 2.2c2.7-0.3 5-1.1 7-2.7zm-39.7 3.1c-0.2 0.2-0.4 0.5-0.6 0.7 2 2.2 4.1 4.4 6.6 6 0.1-0.2 0.3-0.3 0.4-0.5-2.1-2.1-4.3-4.2-6.4-6.2zm39.7-0.2c-2.5 1-4.7 1.6-6.6 3 3.5 0 5.9-1 6.6-3zm-21.9 11.2c-4.5 0.4-5.2 0.7-6 2.3 2.1-0.8 4-1.5 6-2.3zm-12.4-8.5l0.3-0.3c-1.2-1.2-2.4-2.4-3.9-3.8 1.3 1.5 2.5 2.8 3.6 4.1zm34.1 1.6c0-0.1-0.1-0.3-0.1-0.4-0.8 0.2-1.6 0.5-2.4 0.7-0.7 0.2-1.4 0.5-2.2 0.8 0 0.1 0.1 0.2 0.1 0.4 1.5-0.5 3-1 4.6-1.5zm-39 2.5l-0.6 0.6c0.9 0.8 1.8 1.5 2.7 2.3l0.3-0.3c-0.8-0.9-1.6-1.7-2.4-2.6zm-0.5-2.9l-0.5 0.5c0.6 0.4 1.1 0.7 1.7 1.1 0.1-0.1 0.2-0.3 0.3-0.4l-1.5-1.2zm7.6 7.9c0.1-0.2 0.3-0.3 0.4-0.5-0.4-0.3-0.9-0.6-1.3-0.9-0.1 0.1-0.1 0.2-0.2 0.3l1.1 1.1z"/>
</svg>
