<?xml version="1.0" encoding="UTF-8"?>
<svg enable-background="new 0 0 52.2 52.2" version="1.1" fill="#1fba0a" viewBox="0 0 52.2 52.2" xml:space="preserve" xmlns="http://www.w3.org/2000/svg">
	<path class="st0" d="m47.5 20.1c-2.2 0.4-4.8 2.2-8.2 1.7s-2.8-4.1-2.8-4.9 0.6-1.3 1.6-3.9-7-3.8-9.2-3.8-1.3 0.5-1.8 0.4-1.9-0.4-4.1-0.7-6.8 0.6-10.9 1.1-8.1 1.9-10.6 3.7-1.5 6.2 0 8.7 3.3 5 5.2 6.3 6.2 3.1 6.2 3.5c-0.2 2 1.1 7.1 2.3 7.8s1.3 0 2.6-1.6 2-3.3 3.8-4.3 5.9-1.3 9.5-1.3 3.9 1.2 4.6 3.7 0.9 4.9 2.8 6.4 3.9-0.1 5.1-2.7 2.9-8.8 4.6-10.6c1.8-1.8 3.5-3.2 4.1-5.7s-2.6-4.2-4.8-3.8zm-18.1-9.7c2.6 0.3 5.8 0.8 6.9 1.8s0.7 1.5 0.3 2.1-0.9 0.9-1.3 2.1-0.7-0.3-1.4-1.6-1.1-2.1-3-3.2-1.7-1.2-1.5-1.2zm-17.3 19.1c-0.8 0.3-2.9-0.8-6.3-4.3s-4.5-7.7-3.4-9.2 3.6-3 8.1-3.9c0 0 1.3-0.3 3.3-0.6s4.8 0.7 6.3 3.1 0.5 7-1.5 10.4c-2.2 3.5-5.7 4.2-6.5 4.5zm7 4.6c-0.6 0.4-1.3 2-2.3 3.2-0.9 1.2-0.7 1.5-1.2 1.6s-0.6-0.7-0.9-1.4-0.8-3-0.9-4.1 0.9-1.1 1.7-0.8 3.1 0.3 4 0.5 0.3 0.6-0.4 1zm29.8-7.6c-1.1 1.1-2.4 1.9-3.3 3.6s-2.7 6.2-3.4 8.6-1.4 3-2.6 2.9-1.8-2.8-2.1-5-0.8-3.4-1.8-4.8-4.8-0.4-10.5-0.3-9.4-0.8-10.4-1.1 1.6-1.4 3.4-2.7 2.1-2.4 3.6-8-1.2-7.4-2.4-8-0.4-1.1 0.1-1c3.1 0.5 8.7 0.4 11.8 3.8s3.9 7.3 6.8 8.9 7.5-0.6 9-1.1 1.8-0.4 2.7 0.5 0.1 2.6-0.9 3.7zm-34.7-13c-1.2-0.3-2.6 0.9-3.3 2s0.7 2.9 2.5 3 3-2 3-3c-0.1-0.8-0.7-1.6-2.2-2zm-0.2 3.9c-0.7 0.4-1 0.1-1.9-0.5s0-1.9 0.9-2.2c1.3-0.5 2 0 2.3 0.5s-0.6 1.9-1.3 2.2zm11-2.1c-0.5-0.1-1 0.5-0.8 1.3s1.3 0.5 1.6 0.2c0.3-0.4 0.3-1.4-0.8-1.5zm4.8 1.8c-0.5-0.2-1.6 0.5-1.8 1.1-0.2 0.5 0 1.5 1.1 1.7s1.8-1.2 1.7-1.7c-0.1-0.6-0.7-1-1-1.1zm-5.7 4.8c-0.6-0.2-1.4 0.7-1.2 1.6s1.2 0.8 1.8 0.4 0.4-1.7-0.6-2zm-3.1 6c-0.4-0.1-1.7 0.5-1 1.4 0.7 0.8 1.2 0.5 1.9 0.1s-0.2-1.2-0.9-1.5zm5.3 0.3c-0.5-0.1-1.6 0.6-1 1.2 0.5 0.6 0.5 0.6 1.4 0.3 0.9-0.4 0.7-1.3-0.4-1.5zm2.6-4.1c-0.7-0.1-1.3 0.3-1.3 1 0 0.8 1 1 1.7 0.8s0.8-1.6-0.4-1.8zm6.4-0.4c-0.6-0.2-1.8 0.5-1.4 1.3 0.4 0.7 1.3 0.5 1.7 0.4 0.4-0.2 0.5-1.5-0.3-1.7zm-1.1 3.8c-0.4 0-0.2 0.5-0.6 0.8s-1.3 0.5-0.8 1 1.1 0.8 1.7 0.5c0.6-0.2 1.5-2.4-0.3-2.3zm4.1-1.6c-0.3 0-1 0.8-0.6 1.1s1.3 0 1.5-0.3c0.2-0.2-0.2-0.8-0.9-0.8zm0.2 4.9c-0.4 0.3 0 0.8 0.8 1.5s1.5 1.5 1.9 1.1-1-1.6-1.5-2.3c-0.3-0.5-0.8-0.7-1.2-0.3zm3.8-4.5c-1-0.1-1.8 0.4-1.5 0.9s0.9 0.3 2.3 0.3 2.3-0.4 1.9-0.7c-0.5-0.4-1.6-0.4-2.7-0.5z"/>
</svg>
