<?xml version="1.0" encoding="UTF-8"?>
<svg enable-background="new 0 0 118 118" fill="#1fba0a" version="1.1" viewBox="0 0 118 118" xml:space="preserve" xmlns="http://www.w3.org/2000/svg">
		<path d="m117.78 5.324c-0.839-0.56-1.2-1.598-2.962-1.234-0.316 0.014-0.343 0.316-0.741 0.248-5.897 3.154-10.18 7.924-13.825 13.33-1.004 1.222-1.93 2.514-2.963 3.703-0.538 0.621-1.192 1.129-1.729 1.729-0.548 0.613-0.946 1.352-1.48 1.975-0.228 0.266-0.505 0.449-0.741 0.74-0.832 1.028-1.651 1.836-2.469 2.717-1.121 1.207-2.295 2.295-3.457 3.456-4.574 4.575-8.163 10.083-12.837 14.566-4.558 4.578-9.431 8.84-14.073 13.334-2.371-2.486-5.143-4.568-7.405-7.161 0.514-3.33-0.896-6.827-1.235-10.122 0.012-2.951-0.104-6.029 0.247-8.641-0.895-2.232-1.582-4.672-2.222-7.159-3.764-4.632-8.003-8.787-12.099-13.086-0.774-0.952-2.031-1.423-2.715-2.468-0.852-0.875-2.148-1.309-2.716-2.47-1.412-0.316-2.077-1.379-3.702-1.482-1.773 0.615-2.816 1.958-4.197 2.963-1.007 1.381-2.45 2.323-3.457 3.703-2.766 2.008-4.947 4.6-7.159 7.16-2.421 2.353-5.262 4.284-7.407 6.912-0.68 0.473-1.256 1.049-1.728 1.729-0.65 0.585-1.489 0.98-1.728 1.976-0.853 0.38-1.162 1.307-1.728 1.975-0.4 0.834-1.366 1.103-1.234 2.468 0.265 1.795 1.432 2.684 2.469 3.705 0.74 1.317 1.94 2.174 2.716 3.456 4.969 5.318 10.31 10.264 15.554 15.307 1.068 1.072 1.798 2.481 3.457 2.962 2.218 0.162 3.898-0.217 5.925-0.246 0.695-0.457 1.626-0.678 2.469-0.988 0.555-0.679 1.746-0.722 2.469-1.234 4.547-0.473 7.969-2.07 13.085-1.975 1.348 1.203 2.457 2.646 3.703 3.949 0.941 0.377 1.109 1.524 1.976 1.976 0.394 0.923 1.536 1.099 1.727 2.222-5.535 5.41-11.27 10.621-16.544 16.292-1.557 1.16-2.628 2.803-3.95 4.197-0.619 0.697-1.166 1.467-1.975 1.975-0.159 1.24-1.569 1.229-1.728 2.469-1.555 1.162-2.666 2.766-3.95 4.197-1.58 1.219-3.001 2.596-3.95 4.444-0.739 0.659-1.971 0.828-2.469 1.728v0.494c-0.493 0.823-0.525 2.108-0.494 3.457 0.558 1.665 1.353 3.092 2.717 3.949 0.987 1.316 2.098 2.51 3.455 3.457 1.036 0.197 1.602 0.867 2.717 0.987h2.962c1.281-0.695 2.729-1.222 3.456-2.47 0.752-0.236 1.031-0.943 1.481-1.48 0.445-0.543 0.964-1.013 1.235-1.729 1.939-2.01 3.588-4.31 5.431-6.418 0.675-0.314 0.984-0.992 1.481-1.482 0.491-0.497 1.168-0.807 1.481-1.481 0.922-1.053 1.878-2.071 2.716-3.208 1.048-0.929 1.855-2.098 2.715-3.211 1.573-0.484 1.949-2.166 3.21-2.962 0.781-1.112 0.926-2.86 2.222-3.456 0.699 0.453 1.429 0.875 2.223 1.234 0.198 0.953 1.206 1.097 1.728 1.728 1.497 0.808 2.272 2.337 4.444 2.47 3.945-1.487 5.612-5.25 8.147-8.147 0.791-5e-3 1.037 0.81 1.481 1.233 1.499 1.436 2.965 2.652 4.197 4.197 1.874 2.898 3.496 6.049 5.431 8.889 0.546 1.84 1.677 3.096 2.222 4.938 0.611 0.623 0.871 1.598 1.482 2.222 0.091 1.142 1.068 1.4 1.234 2.468 1.147 1.24 2.354 2.42 3.456 3.705 2.44 1.262 4.193 3.212 7.159 3.949 1.618 0.137 2.799-0.164 3.704-0.74 1.248-0.172 1.462 0.841 2.468 0.246 2.184-1.355 3.595-3.482 4.197-6.418 0.169-2.31-0.563-3.717-0.74-5.68-0.887-0.922-1.373-2.248-2.222-3.209-0.655-1.238-2.166-1.619-2.963-2.715-1.639-2.066-3.834-3.574-6.172-4.938-2.097-1.607-4.579-2.828-6.913-4.197-1.27-0.623-2.381-1.406-3.703-1.976-1.367-0.526-2.311-1.475-3.95-1.728-0.918-1.138-1.922-2.192-3.21-2.962-0.675-1.382-2.407-1.709-2.962-3.211 6.625-9.339 13.196-18.733 19.009-28.884 0.899-1.411 1.89-2.798 2.717-3.951 0.303-0.422 0.341-0.647 0.493-0.987 0.036-0.08 0.433-0.156 0.494-0.247 0.145-0.215 0.137-0.555 0.247-0.74 0.115-0.195 0.349-0.511 0.493-0.741 0.242-0.385 0.347-0.66 0.494-0.986 0.038-0.086 0.435-0.148 0.493-0.248 0.141-0.234 0.142-0.546 0.247-0.74 0.442-0.817 0.836-1.691 1.235-2.469 2.01-3.916 4.188-7.857 6.172-11.85 1.36-2.673 2.905-5.16 3.95-8.147 0.932-0.878 1.468-2.153 2.222-3.21 0.038-0.29-0.042-0.701 0.247-0.74 0.056-2.539 1.51-4.576 0.742-7.162zm-70.608 37.032c0.912 0.749-0.75 0.831 0 0zm-17.53 12.591c-1.235 0.085-1.726-0.577-2.963-0.492-1.869-1.095-3.001-2.924-4.69-4.197-1.448-1.431-3.14-2.621-4.444-4.197-2.324-2.119-4.546-4.342-6.665-6.666-0.729-0.67-1.656-1.143-1.975-2.222 0.121-1.442 0.895-2.231 0.74-3.951 2.21 0.177 3.904 0.869 6.172 0.987 1.08 0.32 1.552 1.246 2.223 1.975 0.889 0.511 1.332 1.467 2.222 1.976 1.111 1.605 2.475 2.958 3.95 4.197 2.439 2.993 6.271 4.593 7.899 8.394-0.095 2.126-1.063 3.38-2.469 4.196zm9.382-10.615c-0.802 0.598-1.946 0.851-2.963 1.234-1.337-0.227-1.873-1.254-2.715-1.976-0.903-0.577-1.634-1.329-2.47-1.975-4.853-4.199-9.337-8.767-13.332-13.825v-1.729c0.322-0.613-0.724-1.025 0-1.234-0.169-0.821 0.511-0.397 0.742-0.246h1.233c0.573-0.333 1.402-0.41 1.975-0.742h0.494c5.592 5.766 11.042 11.672 16.542 17.529 0.019 1.134 0.628 1.679 0.494 2.964zm6.913-9.381c-1.755 0.302-3.656 0.457-5.185 0.986-0.794 0.218-0.339-0.812-0.987-0.74-0.073-0.504-0.668-0.485-0.741-0.988-0.681-0.472-1.256-1.047-1.729-1.728-1.392-0.912-2.02-2.588-3.456-3.456-2.152-2.457-4.576-4.64-6.913-6.913 0.397-1.755-0.438-4.081-0.74-5.925 0.579-0.656 1.045-1.424 1.976-1.728 2.07 0.811 3.692 2.068 5.678 2.963 0.205 0.617 0.677 0.969 0.741 1.728 3.834 3.818 7.919 7.387 11.602 11.356-0.126 1.437 0.279 3.405-0.246 4.445zm0.74 16.541c-0.217-0.794 0.813-0.339 0.74-0.988 0.336 0.076 0.205 0.618 0.247 0.988h-0.987zm-13.578 51.598c-0.517-0.308-0.928-0.718-1.235-1.235-1.046-0.6-1.361-1.93-2.468-2.469-0.104-0.516 0.169-0.654 0.246-0.987 0.398-0.069 0.426 0.233 0.741 0.247 1.134 1.91 2.431 3.658 3.95 5.185-0.369 0.667-1.031-0.428-1.234-0.741zm15.554-20.985c-2.216 3.381-5.026 6.166-7.407 9.381-0.594 0.312-1.492 0.318-1.975 0.741 0.215 1.448-0.25 2.219-0.74 2.962-1.202-0.033-1.385-1.084-2.963-0.74-0.324 0.088-0.389 0.434-0.74 0.494-0.223 2.279 1.307 2.807 1.728 4.443-1.478-1.074-2.296-2.806-3.456-4.197 0.995-1.721 2.61-2.82 3.703-4.443 1.306-1.328 2.562-2.705 3.703-4.197 0.89-0.51 1.332-1.466 2.222-1.975 0.224-0.435 0.553-0.766 0.988-0.988 0.368-0.289 0.29-1.026 0.987-0.987 0.455-0.86 1.239-1.394 1.975-1.976 0.555-0.761 1.214-1.42 1.976-1.974 0.087-0.324 0.435-0.388 0.494-0.74 1.046-0.059 1.255 0.721 1.975 0.987-0.331 1.562-1.442 2.345-2.47 3.209zm2.962 3.455c-0.014 0.151-0.037 0.293-0.247 0.248-0.013 0.15-0.036 0.292-0.246 0.246 0.024 0.299-0.359 0.152 0 0 0.015-0.15 0.036-0.292 0.246-0.246 0.014-0.151 0.037-0.293 0.247-0.248 0.14-0.599 0.212-1.27 0.987-1.233-0.015 0.724-0.564 0.917-0.987 1.233zm53.081 17.777c-1.055-0.017-0.577-1.563-0.988-2.222 0.912 0.107 1.483 1.485 0.988 2.222zm-3.21-4.198c-0.031 0.546-1.048 0.105-1.481 0.247-0.205-0.617-0.676-0.969-0.74-1.727 0.868 0.364 1.494 0.972 2.221 1.48zm-3.209 7.408c-0.362-0.215-0.783-0.37-0.742-0.988 0.651-0.075 0.81 0.341 0.742 0.988zm12.344-90.854c-0.697 1.278-1.771 2.18-2.222 3.703-1.054 0.922-1.547 2.404-2.223 3.703-0.83 1.146-1.452 2.498-1.728 4.197-0.739 0.824-1.449 1.679-2.223 2.469-0.686 3.1-2.57 5-3.702 7.653-1.33 2.456-2.5 5.071-4.197 7.159-2.945 4.545-6.685 8.295-9.382 13.086-2.965 4.523-6.286 8.692-9.629 12.838-3.139 4.35-6.458 8.519-9.382 13.084-1.179-0.385-1.784-1.344-2.963-1.729-0.715-0.848-1.655-1.471-2.469-2.221-1.376-1.668-3.166-2.924-4.443-4.691 0.276-1.287 1.386-1.742 1.976-2.715 0.993-0.488 1.194-1.77 2.222-2.223 1.367-1.595 2.873-3.051 4.443-4.443 0.882-0.6 1.533-1.43 2.222-2.223 0.685-0.797 1.693-1.269 2.223-2.223 1.829-1.133 3.026-2.897 4.692-4.196 1.183-2.6 3.5-4.069 5.183-6.173 1.821-1.881 3.456-3.949 5.186-5.924 1.546-2.24 3.219-4.353 4.937-6.42 0.805-1.088 1.754-2.031 2.468-3.209 1.172-0.641 1.589-2.033 2.963-2.469-0.067-0.974 1.056-0.756 0.987-1.729 0.567-0.339 0.795-1.015 1.234-1.48 0.706-1.024 1.567-1.891 2.47-2.716 1.506-1.951 3.091-3.823 4.443-5.927 3.283-2.723 6.14-5.875 9.135-8.887 0.42-0.09 0.466 0.193 0.493 0.494-1.151 0.825-1.622 2.329-2.714 3.212zm-44.687 54.561c0.359-0.152-0.025-0.298 0 0zm-0.246 0.248c0.209 0.045 0.232-0.098 0.246-0.248-0.21-0.045-0.233 0.096-0.246 0.248zc-0.359 0.151 0.025 0.297 0 0z" clip-rule="evenodd" fill-rule="evenodd"/>
</svg>
