<?xml version="1.0" encoding="utf-8"?>
<!-- Generator: Adobe Illustrator 23.0.0, SVG Export Plug-In . SVG Version: 6.00 Build 0)  -->
<svg version="1.1" id="Layer_1" xmlns="http://www.w3.org/2000/svg" xmlns:xlink="http://www.w3.org/1999/xlink" x="0px" y="0px"
	 width="90.4px" height="65.8px" viewBox="0 0 90.4 65.8" style="enable-background:new 0 0 90.4 65.8;" xml:space="preserve">
<style type="text/css">
	.st0{fill:#1FBA0A;}
</style>
<path class="st0" d="M48.9,40.6H30.4c-4.7,0-9.3,1-13.6,2.9l-0.2,0.1c-2.4,1.1-3.9,3.2-4.2,5.8c-0.6,0.1-1.4,0-1.9-0.3
	c-0.4-0.3-0.7-0.7-0.9-1.3C9.5,47.3,9,46.9,8.4,47c-0.5,0.1-0.9,0.6-0.8,1.2c0.3,1.2,0.9,2.1,1.8,2.6c0.8,0.5,1.7,0.6,2.5,0.6h0.5
	c0.4,2.2,1.8,4.2,3.9,5.2c4.5,2.2,9.5,3.3,14.5,3.3h19.1c0.7,0,1.4-0.5,1.5-1.3v-0.1c0.9-5.6,0.5-11.5-1.2-16.9
	C50.1,41,49.6,40.6,48.9,40.6L48.9,40.6z M30.9,57c-4.5,0-9.1-1.1-13.2-3c-1.5-0.7-2.4-2.2-2.3-3.8c0-1.7,0.9-3.1,2.5-3.7l0.2-0.1
	c3.9-1.7,8.1-2.6,12.3-2.6h17.4c0.9,3.2,1.3,6.4,1.3,9.7H30.3c-6.5,0-9.7-2.3-9.8-2.3c-0.4-0.3-1.1-0.2-1.4,0.2s-0.2,1.1,0.2,1.4
	c0.1,0.1,3.7,2.7,11,2.7H49c0,0.5-0.1,1.1-0.2,1.6C48.8,57.1,30.9,57,30.9,57z"/>
<path class="st0" d="M90.1,52.9c-0.9-1.7-3.6-1.8-6.3-0.3c0.5-1.6,0.5-3-0.6-3.8c-1.2-0.8-2.7-0.2-4.1,1.1c0.4-1.6,0.2-3-0.9-3.7
	s-2.4-0.4-3.8,0.4c0.1-1.3-0.3-2.4-1.2-3c-1-0.7-2.2-0.5-3.5,0.1c-0.1-1.2-0.7-1.9-1.3-2.3c-2.6-1.8-6.8,1.7-9.6,5.7
	s-4.5,9.2-1.9,11c0.4,0.3,0.9,0.5,1.6,0.5c0.9,0,2-0.3,3.3-1.3c0.1,0,0.1-0.1,0.2-0.1c0.2,0.6,0.6,1,0.9,1.2c0.5,0.3,1,0.5,1.5,0.5
	c1.3,0,2.8-0.8,4.1-2.1c0.1,0.7,0.4,1.3,1,1.7c0.3,0.2,0.8,0.4,1.4,0.4c0.7,0,1.5-0.2,2.6-1c0.6-0.4,1.2-1,1.9-1.7
	c-0.1,1.4,0.5,2.1,0.9,2.4c0.3,0.2,0.7,0.4,1.2,0.4c0.6,0,1.3-0.2,2.1-0.8c0.3-0.2,0.6-0.4,0.9-0.7c0.1,0.2,0.1,0.4,0.2,0.6
	c0.5,0.9,1.4,1.3,2.7,1.3h0.3c1-0.1,2.2-0.4,3.2-1.1C89.8,56.9,91,54.6,90.1,52.9L90.1,52.9z M58.6,55.6c-0.2-0.7,0.3-3.3,2.6-6.8
	s4.7-4.8,5.4-4.9c0.2,0.7-0.3,3.3-2.6,6.8C61.7,54.2,59.3,55.6,58.6,55.6z M64.8,55.8c0-0.3,0-0.7,0.2-1.3c0.5-0.6,1.1-1.3,1.5-2
	c1-1.5,1.8-3,2.4-4.4c1.1-1.1,2-1.7,2.5-1.8c0.1,0.8-0.4,2.9-2.3,5.5C67.3,54.4,65.5,55.6,64.8,55.8z M74.5,52.8
	c-1.1,1.6-2.2,2.6-2.9,2.9c0.1-0.8,0.6-2.1,1.7-3.7s2.2-2.6,2.9-2.9C76,49.8,75.6,51.2,74.5,52.8z M78.5,55.7
	c0.2-0.5,0.5-1.2,1.1-2.1c0.6-0.8,1.1-1.4,1.5-1.8c-0.2,0.5-0.5,1.2-1.1,2.1C79.4,54.7,78.9,55.3,78.5,55.7z M85.6,55.8
	c-0.7,0.4-1.4,0.6-1.8,0.7c0.3-0.3,0.7-0.8,1.5-1.2s1.4-0.6,1.8-0.7C86.8,54.9,86.3,55.4,85.6,55.8z"/>
<path class="st0" d="M27.9,32.2h0.2l12.8-2v2.6c0,0.5,0.2,0.9,0.6,1.2c0.3,0.2,0.6,0.3,0.9,0.3h0.3l7.8-1.8
	c6.3-1.4,11.9-4.2,16.3-8.1c6.6-6,10.1-13.9,10.1-22.9c0-0.5-0.3-1-0.7-1.3s-1-0.3-1.4-0.1l-33,14l-14.5,6.5
	c-0.5,0.2-0.9,0.8-0.9,1.4v8.8c0,0.4,0.2,0.9,0.5,1.1C27.2,32.1,27.5,32.2,27.9,32.2z M64.8,22.1c-3.4,3.1-7.6,5.3-12.2,6.7l1.8-4.4
	c0.1-0.3,0.4-0.6,0.7-0.7s0.7-0.1,1,0l0.1,0.1c0.9,0.4,1.9,0.4,2.8,0s1.5-1.2,1.8-2.1l0.5-1.8c0.2-0.7,0.8-1.1,1.5-0.9l1,0.2
	c1.5,0.3,3-0.5,3.6-1.9c0.1-0.3,0.4-0.6,0.7-0.7s0.7-0.1,1,0.1l0.3,0.2C68,18.8,66.5,20.5,64.8,22.1z M70.3,15.2l-0.5-0.3
	c-0.8-0.4-1.7-0.5-2.6-0.2c-0.8,0.3-1.5,0.9-1.9,1.7c-0.2,0.5-0.8,0.8-1.4,0.7l-1-0.2c-1.7-0.4-3.4,0.7-3.8,2.4l-0.5,1.8
	c-0.1,0.4-0.3,0.7-0.7,0.8c-0.3,0.2-0.7,0.2-1.1,0l-0.1-0.1c-0.8-0.4-1.7-0.4-2.6-0.1c-0.8,0.3-1.5,1-1.8,1.8l-2.4,5.8
	c-0.1,0-0.2,0-0.2,0.1l-5.9,1.4v-2.4v-0.1v-12L73.7,3.6C73.5,7.9,72.3,11.7,70.3,15.2z M29.4,22.9l11.5-5.2v9.4l-11.5,1.8V22.9z"/>
</svg>
