<?xml version="1.0" encoding="utf-8"?>
<!-- Generator: Adobe Illustrator 23.0.0, SVG Export Plug-In . SVG Version: 6.00 Build 0)  -->
<svg version="1.1" id="Layer_1" xmlns="http://www.w3.org/2000/svg" xmlns:xlink="http://www.w3.org/1999/xlink" x="0px" y="0px"
	 width="487px" height="168.7px" viewBox="0 0 487 168.7" style="enable-background:new 0 0 487 168.7;" xml:space="preserve">
<style type="text/css">
	.st0{fill:url(#SVGID_1_);}
	.st1{clip-path:url(#SVGID_3_);}
	.st2{fill:none;stroke:#000000;}
	.st3{stroke:#000000;}
</style>
<radialGradient id="SVGID_1_" cx="8678.1748" cy="-37373.6914" r="1487.5" gradientTransform="matrix(-2.412700e-02 3.329700e-02 -3.313700e-02 -2.427600e-02 -932.9548 -1113.5677)" gradientUnits="userSpaceOnUse">
	<stop  offset="0" style="stop-color:#FFE93D"/>
	<stop  offset="1" style="stop-color:#FC1F02"/>
</radialGradient>
<polygon class="st0" points="87.7,0 72,7.5 55.4,6.4 43.7,19.4 28.1,24.7 22.2,41.1 9.8,52.1 10.7,69.4 3.4,84.3 10.8,100.1 
	9.8,116.6 22.8,128.3 28.1,144 44.5,149.8 55.4,162.3 72.8,161.3 87.7,168.7 103.4,161.2 120,162.3 131.6,149.3 147.3,144 
	153.1,127.5 165.6,116.6 164.7,99.2 172,84.3 164.6,68.6 165.6,52.1 152.6,40.4 147.3,24.7 130.9,18.9 120,6.4 102.6,7.4 "/>
<g>
	<defs>
		<polygon id="SVGID_2_" points="87.7,0 72,7.5 55.4,6.4 43.7,19.4 28.1,24.7 22.2,41.1 9.8,52.1 10.7,69.4 3.4,84.3 10.8,100.1 
			9.8,116.6 22.8,128.3 28.1,144 44.5,149.8 55.4,162.3 72.8,161.3 87.7,168.7 103.4,161.2 120,162.3 131.6,149.3 147.3,144 
			153.1,127.5 165.6,116.6 164.7,99.2 172,84.3 164.6,68.6 165.6,52.1 152.6,40.4 147.3,24.7 130.9,18.9 120,6.4 102.6,7.4 		"/>
	</defs>
	<clipPath id="SVGID_3_">
		<use xlink:href="#SVGID_2_"  style="overflow:visible;"/>
	</clipPath>
	<g class="st1">
		<path d="M47.8,118.7c0,0,5.6-17.2,7.2-23.1s3.4-11.3,3.4-11.3s-13.3-0.5-18.6-10.9c-5.4-10.4-1.3-23.1-1.3-23.1s-0.5-1.1-1-2.7
			L24.6,63.5L37.3,47c-0.5-1.5-0.9-3.5-1.1-5.6l-8.7,3.4l8.7-3.6c-0.3-4.4,0.9-9.1,6.2-11.7c3.7-1.7,7.1-2.3,10.1-2.3l7.5-9.8
			l1.4,0.7L54,27.2c5.2,0.4,8.7,2.5,8.7,2.5s0.4-0.1,1.1-0.1l16.3-6.7c0,0,0.5,1.4,0.6,1.4l-14.1,5.4c4.5,0.2,11.9,1.2,16.6,4.8
			c7.2,5.6,9,10.4,9.9,12.1s4,5.2,3.8,10.8c-0.2,5.1-1.3,7.4-1.3,10.3c0.7-0.3,1.3-0.7,1.6-0.9c0.7-0.6,1.5-1.2,1.5-1.2
			s-1,1.5-1.7,1.9s2.1-1.1,2.7-1.7c0.5-0.5,0.9-1,0.9-1s-0.7,1.7-1.8,2.2c-1.1,0.6,2.9-1.9,2.9-1.9s-2.1,2.1-4.4,2.8
			c-0.6,0.2-1.1,0.3-1.6,0.4v0.3c0.3,3.6,2.5,7.7,2.8,8.8s-2.9,1.5-3.6,1.7s-1.3,1.3-1.1,2.5s0.4,2.6-1.1,2.6H91
			c0,0,1.7,0.7,1.3,1.9c-0.3,1.3-0.7,0.7-1.4,1.5c-0.6,0.8-0.9,3.8-1.3,5s-2.7,1.9-6.6-0.8s-5.9-4.6-5.9-4.6s-5.2,6.9-5.7,13.6
			s0.7,13.7,0.7,13.7s0.2,1,0.4,3.1c1.9,3.2,4.2,7.3,6,10c2.2,3.4,10.3,16.7,13.8,27.7c2.7-7.4,4.8-15.5,4.8-15.5l0.7,0.6l4-11.1
			c0,0-1.3-3.5-0.2-7.8c1-4.4,4-14.8,5.4-16.2c0,0,0.3,1.3,0.1,3.2s-1.6,6.5-1.6,6.5s-0.9,2.5,1.3,4.3c2.3,1.7,5.1-0.3,7-1.1
			c1.9-0.9,9.6-6,9.6-6s3.1-5.8,4.3-7.4c1.2-1.7,3.8-3.6,3.8-3.6s-0.5,1-1.2,2.1s-2.8,5-2.8,5s2.5-1.7,4.2-3.2s3.5-1.8,3.5-1.8
			s0.1,0.1-0.9,0.7s-4.4,4-4.4,4s2.3-1.5,3-1.9c0.7-0.3,2.5-1,2.5-1s-5.7,5-11,9.3c-5.3,4.4-11.7,10.3-11.7,10.3s-1,2-2.6,4.9
			c-1.5,2.8-6,18.8-6,18.8c3.6,21.2,16.1,30.6,14,63.2l-52-5.8c-4.8-0.1-9.8-0.4-12.9-1.5c-2.1-0.7-3.4-1.8-3.2-3.4
			c0.7-7.2-4.9-25.7-6.3-44.3C42.1,138.5,47.8,118.7,47.8,118.7L47.8,118.7z M128.5,96.4c-0.9,0.9-3.2,1.9-5.1,1.5
			c-0.9,0.1-1.7-0.1-2.5-0.7c-3.1-2.1-1.6-4.6,0.2-4.6c0.9,0,1.6,0.3,2.1,0.7c0.2,0.1,0.4,0.2,0.6,0.4c-0.4-0.7-1-2.5-0.1-4.8
			c1.3-3.1,3.7-5.2,6.2-3.1c0.9,0.7,1,2,0.9,3.4c0.3,0.2,0.5,0.5,0.7,0.7C132.9,92.2,128.5,96.4,128.5,96.4L128.5,96.4z"/>
	</g>
</g>
<polygon class="st2" points="87.7,0 72,7.5 55.4,6.4 43.7,19.4 28.1,24.7 22.2,41.1 9.8,52.1 10.7,69.4 3.4,84.3 10.8,100.1 
	9.8,116.6 22.8,128.3 28.1,144 44.5,149.8 55.4,162.3 72.8,161.3 87.7,168.7 103.4,161.2 120,162.3 131.6,149.3 147.3,144 
	153.1,127.5 165.6,116.6 164.7,99.2 172,84.3 164.6,68.6 165.6,52.1 152.6,40.4 147.3,24.7 130.9,18.9 120,6.4 102.6,7.4 "/>
<line class="st2" x1="120" y1="6.4" x2="55.4" y2="162.3"/>
<line class="st2" x1="87.7" y1="0" x2="87.7" y2="168.7"/>
<line class="st2" x1="55.4" y1="6.4" x2="120" y2="162.3"/>
<line class="st2" x1="28.1" y1="24.7" x2="147.3" y2="144"/>
<line class="st2" x1="9.8" y1="52.1" x2="165.6" y2="116.6"/>
<line class="st2" x1="3.4" y1="84.3" x2="172" y2="84.3"/>
<line class="st2" x1="9.8" y1="116.6" x2="165.6" y2="52.1"/>
<line class="st2" x1="28.1" y1="144" x2="147.3" y2="24.7"/>
<path class="st3" d="M81.2,147.2c2-4.2,5.5-6.6,3.4-11.6s-3.3-10.7-3.5-13.2s-5-1.1-5.4,2.1s-1.3,5.9-1.8,7.4s-1.4,7,0,9.2
	C75.4,143.3,81.2,147.2,81.2,147.2z"/>
<polygon class="st3" points="83.6,91.8 83.3,93 74.6,131 77.1,131.4 85.1,93.4 "/>
<path d="M80.9,124.3c0.4-0.1,1.5-0.5,1.9,1.1c0.5,1.7-1.2,2.7-1.2,2.7s1.2-0.6,1.5-0.5s1.5,1.3,1.1,2.7c-0.5,1.4-1.9,1.5-1.5,1.3
	c0.4-0.1-4.2-1-4.2-1L80.9,124.3z"/>
<path d="M205.9,77.5c0-5.7,1.1-11.5,3.4-17.6s5.7-12.6,10.2-19.4h11.9l8.5,41.7l11.5-41.7h11l7.7,52.7h-11l-6.1-40l-11.2,40h-10.4
	l-9.8-46.7c-3.1,7.7-4.6,16.5-4.6,26.3c0,6.6,1.1,13.4,3.4,20.5h-11.8C206.7,87.9,205.9,82.7,205.9,77.5z"/>
<path d="M274.4,72.6c0-4.6,1.9-9.6,5.7-15.1h10.6c-2.2,4.1-3.8,7.6-4.6,10.4c-0.9,2.9-1.3,5.8-1.3,8.7c0,4.9,0.6,9.1,1.8,12.6
	l17-31.8h11.2v35.7h-10.2V64.2l-15.8,28.9h-5.2c0-1-0.3-2.1-0.9-3.3c-0.6-1.1-1.4-2.2-2.3-3.3s-1.8-2.4-2.7-3.6
	c-0.9-1.3-1.7-2.8-2.3-4.6C274.7,76.5,274.4,74.6,274.4,72.6L274.4,72.6z"/>
<path d="M321.5,93.2V57.5h10.2v16.2h4.5c0.3-2.2,1-4.3,2.1-6.3c1-2,2.4-3.8,4-5.4c1.7-1.6,3.6-2.9,5.9-3.8c2.3-1,4.8-1.4,7.4-1.4
	c3,0,5.8,0.6,8.3,1.8s4.6,2.8,6.2,4.8s2.9,4.1,3.7,6.5c0.9,2.4,1.4,4.8,1.4,7.3c0,2.6-0.5,4.9-1.3,6.9c-0.8,2.1-1.8,3.7-3.2,4.9
	c-1.3,1.2-2.8,2.2-4.5,3c-1.8,0.8-3.5,1.4-5.3,1.7c-1.7,0.3-3.5,0.5-5.4,0.5c-1.8,0-3.6-0.1-5.2-0.5c-1.7-0.2-3.4-0.8-5.2-1.5
	c-1.8-0.8-3.3-1.8-4.6-2.9c-1.3-1.2-2.4-2.8-3.2-4.6c-0.9-2-1.3-4.1-1.4-6.6h-4.2v15.3h-10.2L321.5,93.2L321.5,93.2z M346.6,77.9
	c0,4.1,0.8,7.2,2.4,9.3s3.8,3,6.5,3c2.8,0,4.9-1,6.5-3s2.4-5.2,2.4-9.3c0-2.1-0.1-4.1-0.4-6.1c-0.3-1.9-0.7-3.7-1.4-5.5
	c-0.6-1.8-1.5-3.2-2.8-4.2s-2.7-1.6-4.4-1.6s-3.1,0.6-4.4,1.6c-1.2,1-2.1,2.5-2.8,4.2c-0.6,1.8-1.1,3.6-1.4,5.5
	C346.7,73.8,346.6,75.8,346.6,77.9L346.6,77.9z"/>
<polygon points="380.9,93.2 380.9,57.5 391.1,57.5 391.1,89.4 401.3,89.4 401.3,57.5 411.5,57.5 411.5,89.4 421.8,89.4 421.8,57.5 
	432,57.5 432,93.2 "/>
<path d="M437.8,72.6c0-4.6,1.9-9.6,5.7-15.1h10.6c-2.2,4.1-3.8,7.6-4.6,10.4c-0.8,2.9-1.3,5.8-1.3,8.7c0,4.9,0.6,9.1,1.9,12.6
	L467,57.5h11.2v35.7H468V64.3l-15.8,28.9H447c0-1-0.3-2.1-0.9-3.3c-0.6-1.1-1.4-2.2-2.3-3.3s-1.8-2.4-2.7-3.6
	c-0.9-1.3-1.7-2.8-2.3-4.6C438.1,76.5,437.8,74.6,437.8,72.6L437.8,72.6z"/>
<path d="M217.1,129.9l2.4,0.3c-0.3,1.7-1,3-2.1,3.9s-2.4,1.4-4,1.4c-2,0-3.6-0.7-4.8-2s-1.8-3.2-1.8-5.6c0-1.6,0.2-3,0.7-4.1
	s1.3-2.1,2.4-2.6c1-0.6,2.2-0.9,3.4-0.9c1.5,0,2.9,0.4,3.8,1.1c1,0.8,1.7,2,2,3.4l-2.4,0.3c-0.2-1-0.6-1.7-1.2-2.2s-1.3-0.7-2.1-0.7
	c-1.3,0-2.3,0.5-3,1.3c-0.8,0.9-1.1,2.3-1.1,4.2c0,2,0.3,3.4,1.1,4.2c0.7,0.9,1.7,1.3,2.9,1.3c1,0,1.8-0.3,2.4-0.9
	C216.5,132.1,216.9,131.1,217.1,129.9L217.1,129.9z"/>
<path d="M221.4,140.8l-0.3-2.3c0.6,0.1,1,0.2,1.4,0.2c0.6,0,1-0.1,1.3-0.3s0.6-0.5,0.8-0.7c0.2-0.3,0.4-0.9,0.7-1.8
	c0.1-0.2,0.1-0.3,0.2-0.6l-5.5-14.6h2.6l3,8.4c0.3,1.1,0.7,2.2,1,3.4c0.3-1.1,0.6-2.2,1-3.3l3.1-8.5h2.4l-5.1,14.8
	c-0.6,1.5-1.1,2.6-1.4,3.3c-0.5,0.8-1,1.4-1.5,1.8c-0.6,0.3-1.2,0.6-2,0.6C222.6,141.1,222,141,221.4,140.8L221.4,140.8z"/>
<polygon points="235.6,120.7 238.1,120.7 238.1,133.2 243.7,133.2 243.7,120.7 246.1,120.7 246.1,133.2 251.8,133.2 251.8,120.7 
	254.2,120.7 254.2,135.2 235.6,135.2 "/>
<polygon points="258,120.7 260.4,120.7 260.4,131.8 267.3,120.7 269.9,120.7 269.9,135.2 267.5,135.2 267.5,124.2 260.7,135.2 
	258,135.2 "/>
<polygon points="281.4,120.7 283.8,120.7 283.8,131.8 290.7,120.7 293.4,120.7 293.4,135.2 290.9,135.2 290.9,124.2 284.1,135.2 
	281.4,135.2 "/>
<path d="M304.8,140.8v-20.1h2.2v1.9c0.5-0.7,1.1-1.3,1.8-1.7c0.6-0.3,1.4-0.5,2.4-0.5c1.3,0,2.4,0.3,3.3,0.9c1,0.6,1.7,1.5,2.1,2.7
	c0.5,1.1,0.7,2.5,0.7,3.8c0,1.5-0.3,2.8-0.8,4c-0.5,1.1-1.3,2.1-2.3,2.7s-2.1,1-3.2,1c-0.8,0-1.5-0.2-2.2-0.5
	c-0.6-0.3-1.1-0.8-1.5-1.3v7.1L304.8,140.8L304.8,140.8z M307.1,128c0,1.9,0.3,3.3,1.1,4.1c0.7,0.9,1.7,1.3,2.8,1.3s2-0.5,2.8-1.4
	c0.7-0.9,1.1-2.4,1.1-4.2s-0.3-3.3-1.1-4.2c-0.7-0.9-1.7-1.4-2.7-1.4s-2,0.5-2.8,1.5S307.1,126.2,307.1,128L307.1,128z"/>
<path d="M319.5,128c0-2.7,0.7-4.7,2.2-6c1.3-1.1,2.8-1.6,4.5-1.6c2,0,3.7,0.6,4.9,2c1.3,1.3,1.9,3.1,1.9,5.4c0,1.9-0.3,3.3-0.9,4.4
	c-0.6,1-1.4,1.9-2.4,2.5c-1.1,0.6-2.2,0.9-3.6,0.9c-2,0-3.7-0.7-4.9-2C320.1,132.3,319.5,130.4,319.5,128L319.5,128z M322,128
	c0,1.8,0.4,3.2,1.2,4.1s1.8,1.4,3,1.4c1.3,0,2.3-0.5,3.1-1.4s1.2-2.4,1.2-4.2s-0.4-3.2-1.2-4.1c-0.9-0.9-1.8-1.4-3.1-1.4
	c-1.2,0-2.2,0.5-3,1.4S322,126.1,322,128z"/>
<path d="M336.5,120.7H348v14.5h-2.5v-12.4H339v7.2c0,1.7-0.1,2.8-0.1,3.3c-0.1,0.5-0.5,1-0.9,1.4c-0.5,0.4-1.2,0.6-2.1,0.6
	c-0.6,0-1.3-0.1-2-0.1v-2.1h1.1c0.5,0,0.9-0.1,1.1-0.2s0.3-0.2,0.5-0.5c0.1-0.2,0.1-1,0.1-2.2v-9.5H336.5z"/>
<path d="M352.9,120.7h11.5v14.5h-2.5v-12.4h-6.5v7.2c0,1.7-0.1,2.8-0.2,3.3s-0.4,1-0.9,1.4s-1.1,0.6-2.1,0.6c-0.6,0-1.2-0.1-2-0.1
	v-2.1h1.1c0.5,0,0.9-0.1,1.1-0.2s0.3-0.2,0.4-0.5s0.1-1,0.1-2.2V120.7z"/>
<path d="M381.8,120.7h2.5v14.5h-2.5V120.7z M368.1,120.7h2.5v5.7h3.1c2.1,0,3.6,0.4,4.7,1.2c1.1,0.7,1.7,1.8,1.7,3.2
	c0,1.3-0.5,2.3-1.4,3.2s-2.4,1.3-4.4,1.3h-6.1v-14.6L368.1,120.7L368.1,120.7z M370.5,133.2h2.6c1.5,0,2.7-0.2,3.3-0.6
	c0.7-0.4,1-1,1-1.8c0-0.6-0.3-1.2-0.7-1.7c-0.5-0.5-1.6-0.7-3.3-0.7h-2.9V133.2z"/>
</svg>
