<?xml version="1.0" encoding="UTF-8"?>
<svg enable-background="new 0 0 459.529 459.529" fill="white" version="1.1" viewBox="0 0 459.529 459.529" xml:space="preserve" xmlns="http://www.w3.org/2000/svg">
		<path d="m17 55.231h48.733l69.417 251.03c1.983 7.367 8.783 12.467 16.433 12.467h213.35c6.8 0 12.75-3.967 15.583-10.2l77.633-178.5c2.267-5.383 1.7-11.333-1.417-16.15s-8.5-7.65-14.167-7.65h-235.73c-9.35 0-17 7.65-17 17s7.65 17 17 17h209.67l-62.9 144.5h-189.27l-69.416-251.03c-1.983-7.367-8.783-12.467-16.433-12.467h-61.484c-9.35 0-17 7.65-17 17s7.65 17 17 17z"/>
		<path d="m135.43 438.3c21.25 0 38.533-17.283 38.533-38.533s-17.283-38.533-38.533-38.533-38.533 17.282-38.533 38.532 17.283 38.534 38.533 38.534z"/>
		<path d="m376.27 438.3h2.833c10.2-0.85 19.55-5.383 26.35-13.317 6.8-7.65 9.917-17.567 9.35-28.05-1.417-20.967-19.833-37.117-41.083-35.7s-37.117 20.117-35.7 41.083c1.416 20.117 18.133 35.984 38.25 35.984z"/>
</svg>
