<?xml version="1.0" encoding="UTF-8"?>
<!DOCTYPE svg  PUBLIC '-//W3C//DTD SVG 1.1//EN'  'http://www.w3.org/Graphics/SVG/1.1/DTD/svg11.dtd'>
<svg enable-background="new 0 0 32 32" version="1.1" viewBox="0 0 32 32" xml:space="preserve" xmlns="http://www.w3.org/2000/svg">
			<path d="m14.5 22c4.137 0 7.5-4.094 7.5-9.125 0-5.032-3.363-9.125-7.5-9.125-2.046 0-3.956 0.979-5.378 2.755-1.369 1.712-2.123 3.974-2.122 6.37 0 5.032 3.364 9.125 7.5 9.125zm0-16.25c3.032 0 5.5 3.196 5.5 7.125 0 3.93-2.468 7.125-5.5 7.125s-5.5-3.195-5.502-7.125c0-3.929 2.468-7.125 5.502-7.125zm6.299 15.25c-0.553 0-1 0.447-1 1s0.447 1 1 1c3.419 0 6.201 2.782 6.201 6.202 0 0.439-0.359 0.798-0.801 0.798h-23.4c-0.44 0-0.799-0.357-0.799-0.798 0-3.42 2.781-6.202 6.199-6.202 0.553 0 1-0.447 1-1s-0.447-1-1-1c-4.521 0-8.199 3.68-8.199 8.202 0 1.543 1.256 2.798 2.799 2.798h23.4c1.544 0 2.801-1.255 2.801-2.798 0-4.522-3.68-8.202-8.201-8.202zm-5.568-18.361c0.716-0.424 1.479-0.638 2.269-0.638 3.032 0 5.5 3.196 5.5 7.124 0 0.705-0.078 1.396-0.232 2.057-0.127 0.538 0.207 1.076 0.744 1.202 0.077 0.019 0.153 0.026 0.229 0.026 0.454 0 0.864-0.311 0.973-0.771 0.188-0.811 0.286-1.656 0.286-2.514 0-5.031-3.363-9.125-7.5-9.125-1.137 0-2.272 0.317-3.286 0.917-0.476 0.281-0.633 0.895-0.352 1.37s0.896 0.633 1.369 0.352zm8.769 14.361c-0.553 0-1 0.447-1 1s0.447 1 1 1c3.419 0 6 2.85 6 6.268 0 0.113-0.021 0.226-0.068 0.326-0.224 0.506 4e-3 1.096 0.508 1.32 0.13 0.059 0.269 0.086 0.406 0.086 0.383 0 0.748-0.223 0.914-0.594 0.159-0.359 0.24-0.742 0.24-1.141 0-4.518-3.479-8.265-8-8.265z"/>
</svg>
