<?xml version="1.0" encoding="utf-8"?>
<!-- Generator: Adobe Illustrator 23.0.0, SVG Export Plug-In . SVG Version: 6.00 Build 0)  -->
<svg version="1.1" id="Layer_1" xmlns="http://www.w3.org/2000/svg" xmlns:xlink="http://www.w3.org/1999/xlink" x="0px" y="0px"
	 viewBox="0 0 166.6 168.7" style="enable-background:new 0 0 166.6 168.7;" xml:space="preserve"
	>
<style type="text/css">
	.st0{fill:url(#SVGID_1_);}
	.st1{clip-path:url(#SVGID_3_);}
	.st2{fill:none;stroke:#000000;}
	.st3{stroke:#000000;}
</style>
<radialGradient id="SVGID_1_" cx="8672.7754" cy="-37373.6914" r="1487.5" gradientTransform="matrix(-2.412700e-02 3.329700e-02 -3.313700e-02 -2.427600e-02 -938.485 -1113.3879)" gradientUnits="userSpaceOnUse">
	<stop  offset="0" style="stop-color:#FFE93D"/>
	<stop  offset="1" style="stop-color:#FC1F02"/>
</radialGradient>
<polygon class="st0" points="82.3,0 66.6,7.5 50,6.4 38.3,19.4 22.7,24.7 16.8,41.1 4.4,52.1 5.3,69.4 -2,84.3 5.4,100.1 4.4,116.6 
	17.4,128.3 22.7,144 39.1,149.8 50,162.3 67.4,161.3 82.3,168.7 98,161.2 114.6,162.3 126.2,149.3 141.9,144 147.7,127.5 
	160.2,116.6 159.3,99.2 166.6,84.3 159.2,68.6 160.2,52.1 147.2,40.4 141.9,24.7 125.5,18.9 114.6,6.4 97.2,7.4 "/>
<g>
	<defs>
		<polygon id="SVGID_2_" points="82.3,0 66.6,7.5 50,6.4 38.3,19.4 22.7,24.7 16.8,41.1 4.4,52.1 5.3,69.4 -2,84.3 5.4,100.1 
			4.4,116.6 17.4,128.3 22.7,144 39.1,149.8 50,162.3 67.4,161.3 82.3,168.7 98,161.2 114.6,162.3 126.2,149.3 141.9,144 
			147.7,127.5 160.2,116.6 159.3,99.2 166.6,84.3 159.2,68.6 160.2,52.1 147.2,40.4 141.9,24.7 125.5,18.9 114.6,6.4 97.2,7.4 		"/>
	</defs>
	<clipPath id="SVGID_3_">
		<use xlink:href="#SVGID_2_"  style="overflow:visible;"/>
	</clipPath>
	<g class="st1">
		<path d="M42.4,118.7c0,0,5.6-17.2,7.2-23.1S53,84.3,53,84.3s-13.3-0.5-18.6-10.9C29,63,33.1,50.3,33.1,50.3s-0.5-1.1-1-2.7
			L19.2,63.5L31.9,47c-0.5-1.5-0.9-3.5-1.1-5.6l-8.7,3.4l8.7-3.6c-0.3-4.4,0.9-9.1,6.2-11.7c3.7-1.7,7.1-2.3,10.1-2.3l7.5-9.8
			l1.4,0.7l-7.4,9.1c5.2,0.4,8.7,2.5,8.7,2.5s0.4-0.1,1.1-0.1l16.3-6.7c0,0,0.5,1.4,0.6,1.4l-14.1,5.4c4.5,0.2,11.9,1.2,16.6,4.8
			c7.2,5.6,9,10.4,9.9,12.1s4,5.2,3.8,10.8c-0.2,5.1-1.3,7.4-1.3,10.3c0.7-0.3,1.3-0.7,1.6-0.9c0.7-0.6,1.5-1.2,1.5-1.2
			s-1,1.5-1.7,1.9s2.1-1.1,2.7-1.7c0.5-0.5,0.9-1,0.9-1s-0.7,1.7-1.8,2.2c-1.1,0.6,2.9-1.9,2.9-1.9s-2.1,2.1-4.4,2.8
			c-0.6,0.2-1.1,0.3-1.6,0.4v0.3c0.3,3.6,2.5,7.7,2.8,8.8s-2.9,1.5-3.6,1.7s-1.3,1.3-1.1,2.5s0.4,2.6-1.1,2.6h-1.7
			c0,0,1.7,0.7,1.3,1.9c-0.3,1.3-0.7,0.7-1.4,1.5c-0.6,0.8-0.9,3.8-1.3,5s-2.7,1.9-6.6-0.8s-5.9-4.6-5.9-4.6s-5.2,6.9-5.7,13.6
			s0.7,13.7,0.7,13.7s0.2,1,0.4,3.1c1.9,3.2,4.2,7.3,6,10c2.2,3.4,10.3,16.7,13.8,27.7c2.7-7.4,4.8-15.5,4.8-15.5l0.7,0.6l4-11.1
			c0,0-1.3-3.5-0.2-7.8c1-4.4,4-14.8,5.4-16.2c0,0,0.3,1.3,0.1,3.2s-1.6,6.5-1.6,6.5s-0.9,2.5,1.3,4.3c2.3,1.7,5.1-0.3,7-1.1
			c1.9-0.9,9.6-6,9.6-6s3.1-5.8,4.3-7.4c1.2-1.7,3.8-3.6,3.8-3.6s-0.5,1-1.2,2.1s-2.8,5-2.8,5s2.5-1.7,4.2-3.2s3.5-1.8,3.5-1.8
			s0.1,0.1-0.9,0.7c-1,0.6-4.4,4-4.4,4s2.3-1.5,3-1.9c0.7-0.3,2.5-1,2.5-1s-5.7,5-11,9.3c-5.3,4.4-11.7,10.3-11.7,10.3s-1,2-2.6,4.9
			c-1.5,2.8-6,18.8-6,18.8c3.6,21.2,16.1,30.6,14,63.2l-52-5.8c-4.8-0.1-9.8-0.4-12.9-1.5c-2.1-0.7-3.4-1.8-3.2-3.4
			c0.7-7.2-4.9-25.7-6.3-44.3C36.7,138.5,42.4,118.7,42.4,118.7L42.4,118.7z M123.1,96.4c-0.9,0.9-3.2,1.9-5.1,1.5
			c-0.9,0.1-1.7-0.1-2.5-0.7c-3.1-2.1-1.6-4.6,0.2-4.6c0.9,0,1.6,0.3,2.1,0.7c0.2,0.1,0.4,0.2,0.6,0.4c-0.4-0.7-1-2.5-0.1-4.8
			c1.3-3.1,3.7-5.2,6.2-3.1c0.9,0.7,1,2,0.9,3.4c0.3,0.2,0.5,0.5,0.7,0.7C127.5,92.2,123.1,96.4,123.1,96.4L123.1,96.4z"/>
	</g>
</g>
<polygon class="st2" points="82.3,0 66.6,7.5 50,6.4 38.3,19.4 22.7,24.7 16.8,41.1 4.4,52.1 5.3,69.4 -2,84.3 5.4,100.1 4.4,116.6 
	17.4,128.3 22.7,144 39.1,149.8 50,162.3 67.4,161.3 82.3,168.7 98,161.2 114.6,162.3 126.2,149.3 141.9,144 147.7,127.5 
	160.2,116.6 159.3,99.2 166.6,84.3 159.2,68.6 160.2,52.1 147.2,40.4 141.9,24.7 125.5,18.9 114.6,6.4 97.2,7.4 "/>
<line class="st2" x1="114.6" y1="6.4" x2="50" y2="162.3"/>
<line class="st2" x1="82.3" y1="0" x2="82.3" y2="168.7"/>
<line class="st2" x1="50" y1="6.4" x2="114.6" y2="162.3"/>
<line class="st2" x1="22.7" y1="24.7" x2="141.9" y2="144"/>
<line class="st2" x1="4.4" y1="52.1" x2="160.2" y2="116.6"/>
<line class="st2" x1="-2" y1="84.3" x2="166.6" y2="84.3"/>
<line class="st2" x1="4.4" y1="116.6" x2="160.2" y2="52.1"/>
<line class="st2" x1="22.7" y1="144" x2="141.9" y2="24.7"/>
<path class="st3" d="M75.8,147.2c2-4.2,5.5-6.6,3.4-11.6s-3.3-10.7-3.5-13.2s-5-1.1-5.4,2.1s-1.3,5.9-1.8,7.4s-1.4,7,0,9.2
	C70,143.3,75.8,147.2,75.8,147.2z"/>
<polygon class="st3" points="78.2,91.8 77.9,93 69.2,131 71.7,131.4 79.7,93.4 "/>
<path d="M75.5,124.3c0.4-0.1,1.5-0.5,1.9,1.1c0.5,1.7-1.2,2.7-1.2,2.7s1.2-0.6,1.5-0.5s1.5,1.3,1.1,2.7c-0.5,1.4-1.9,1.5-1.5,1.3
	c0.4-0.1-4.2-1-4.2-1L75.5,124.3z"/>
</svg>
