<?xml version="1.0" encoding="UTF-8"?>
<svg enable-background="new 0 0 612.003 612.003" fill="#1fba0a" version="1.1" viewBox="0 0 612.003 612.003" xml:space="preserve" xmlns="http://www.w3.org/2000/svg">
	<path d="m608.07 333.26l-44.973-71.364c-3.563-5.658-4.764-12.49-3.352-19.022l17.854-82.442c2.784-12.848-4.649-25.708-17.164-29.724l-80.323-25.759c-6.366-2.043-11.679-6.5-14.795-12.413l-39.315-74.627c-6.124-11.634-20.082-16.711-32.253-11.743l-78.094 31.902c-6.188 2.522-13.122 2.522-19.31 0l-78.081-31.896c-12.171-4.968-26.129 0.109-32.259 11.743l-39.315 74.62c-3.116 5.913-8.429 10.37-14.795 12.413l-80.322 25.759c-12.522 4.016-19.948 16.877-17.164 29.724l17.847 82.442c1.418 6.532 0.211 13.365-3.352 19.022l-44.967 71.365c-7.011 11.123-4.425 25.746 5.964 33.805l66.664 51.677c5.287 4.099 8.754 10.102 9.661 16.73l11.424 83.573c1.775 13.026 13.16 22.573 26.289 22.062l84.288-3.263c6.679-0.262 13.192 2.114 18.154 6.602l62.462 56.677c9.738 8.831 24.597 8.831 34.328 0l62.469-56.677c4.949-4.495 11.468-6.864 18.154-6.602l84.281 3.263c13.141 0.511 24.514-9.042 26.295-22.062l11.424-83.573c0.907-6.628 4.374-12.63 9.655-16.73l66.664-51.677c10.388-8.059 12.968-22.682 5.957-33.805zm-372.83 74.665l-74.435-51.99 30.593 70.904-20.389 8.799-46.92-108.72 21.353-9.221 75.84 53.401-31.34-72.602 20.389-8.806 46.933 108.72-22.024 9.509zm45.234-19.527l-46.92-108.72 80.616-34.801 7.931 18.396-58.669 25.318 10.402 24.099 54.589-23.562 7.905 18.32-54.589 23.556 12.771 29.59 60.738-26.212 7.905 18.32-82.679 35.695zm183.78-79.313l-56.735-71.945 13.492 90.597-23.805 10.274-72.871-97.512 22.464-9.706 48.625 67.609-12.356-83.253 26.116-11.27 51.831 67.718-16.091-83.145 22.1-9.54 20.516 120.12-23.286 10.05z"/>
</svg>
